<svg width="200" height="200" viewBox="0 0 200 200" fill="none" xmlns="http://www.w3.org/2000/svg">
<path d="M100 64.6446C100 84.1708 84.1709 99.9999 64.6446 99.9999C45.1184 99.9999 29.2893 84.1708 29.2893 64.6446C29.2893 45.1184 45.1184 29.2892 64.6446 29.2892C84.1709 29.2892 100 45.1184 100 64.6446Z" fill="#BFF3ED"/>
<path d="M100 64.6446C100 84.1708 84.1709 99.9999 64.6446 99.9999C45.1184 99.9999 29.2893 84.1708 29.2893 64.6446C29.2893 45.1184 45.1184 29.2892 64.6446 29.2892C84.1709 29.2892 100 45.1184 100 64.6446Z" stroke="black"/>
<path d="M170.711 64.6446C170.711 84.1708 154.882 99.9999 135.355 99.9999C115.829 99.9999 100 84.1708 100 64.6446C100 45.1184 115.829 29.2892 135.355 29.2892C154.882 29.2892 170.711 45.1184 170.711 64.6446Z" fill="#DBE2F4"/>
<path d="M170.711 64.6446C170.711 84.1708 154.882 99.9999 135.355 99.9999C115.829 99.9999 100 84.1708 100 64.6446C100 45.1184 115.829 29.2892 135.355 29.2892C154.882 29.2892 170.711 45.1184 170.711 64.6446Z" stroke="black"/>
<path d="M100 135.355C100 154.881 84.1709 170.711 64.6446 170.711C45.1184 170.711 29.2893 154.881 29.2893 135.355C29.2893 115.829 45.1184 99.9999 64.6446 99.9999C84.1709 99.9999 100 115.829 100 135.355Z" fill="#FFD3E6"/>
<path d="M100 135.355C100 154.881 84.1709 170.711 64.6446 170.711C45.1184 170.711 29.2893 154.881 29.2893 135.355C29.2893 115.829 45.1184 99.9999 64.6446 99.9999C84.1709 99.9999 100 115.829 100 135.355Z" stroke="black"/>
<path d="M170.711 135.355C170.711 154.881 154.882 170.711 135.355 170.711C115.829 170.711 100 154.881 100 135.355C100 115.829 115.829 99.9999 135.355 99.9999C154.882 99.9999 170.711 115.829 170.711 135.355Z" fill="#FEE2D9"/>
<path d="M170.711 135.355C170.711 154.881 154.882 170.711 135.355 170.711C115.829 170.711 100 154.881 100 135.355C100 115.829 115.829 99.9999 135.355 99.9999C154.882 99.9999 170.711 115.829 170.711 135.355Z" stroke="black"/>
<ellipse cx="100" cy="50" rx="35.3553" ry="35.3553" transform="rotate(45 100 50)" stroke="black" stroke-opacity="0.12"/>
<ellipse cx="150" cy="100" rx="35.3553" ry="35.3553" transform="rotate(45 150 100)" stroke="black" stroke-opacity="0.12"/>
<ellipse cx="50" cy="100" rx="35.3553" ry="35.3553" transform="rotate(45 50 100)" stroke="black" stroke-opacity="0.12"/>
<ellipse cx="100" cy="150" rx="35.3553" ry="35.3553" transform="rotate(45 100 150)" stroke="black" stroke-opacity="0.12"/>
</svg>
