<svg width="35" height="31" viewBox="0 0 35 31" fill="none" xmlns="http://www.w3.org/2000/svg">
<path d="M33.6782 8.26929C33.6782 8.26929 34.3192 4.68678 31.6389 6.30469C31.6389 6.30469 31.4058 2.66439 29.1334 5.20682C29.1334 5.20682 27.9098 2.95331 26.5697 5.03347C24.7634 7.80703 23.5398 12.1985 24.7051 19.4791L26.9193 18.0345C28.4925 13.4697 34.1444 12.9497 34.9018 10.465C35.4262 8.73155 33.6782 8.26929 33.6782 8.26929Z" fill="#42ADE2"/>
<path d="M11.7117 4.39787L5.94324 6.47804C7.22511 -0.455862 15.6155 0.00639804 15.6155 0.00639804C15.6155 0.00639804 11.6534 1.85544 11.7117 4.39787Z" fill="#42ADE2"/>
<path d="M12.6439 5.66908L6.52588 6.47804C9.32269 0.00639975 17.4218 2.25992 17.4218 2.25992C17.4218 2.25992 13.1683 3.18444 12.6439 5.66908Z" fill="#42ADE2"/>
<path d="M0 10.9851L3.14641 10.1761V12.2563C3.14641 12.1985 1.2236 11.9096 0 10.9851Z" fill="#FFD93B"/>
<path d="M3.14641 10.1183L0 8.55822C2.09761 6.94031 4.48655 7.46035 4.48655 7.46035L3.14641 10.1183Z" fill="#FFD93B"/>
<path d="M18.5288 24.8529H17.3052V29.4177C17.1304 29.4755 16.0816 29.3599 15.6155 29.3599C14.5667 29.3599 13.6927 30.1111 13.6927 30.1111H18.5288V24.8529Z" fill="#E08828"/>
<path d="M13.4014 24.8529H12.1778V29.4177C12.003 29.4755 10.9542 29.3599 10.4881 29.3599C9.43925 29.3599 8.56525 30.1111 8.56525 30.1111H13.4014V24.8529Z" fill="#E08828"/>
<path d="M30.2988 15.1454C32.5712 15.1454 27.9098 25.2573 16.7226 25.2573C9.1479 25.2573 2.79681 22.2527 2.79681 12.8341C2.79681 6.99808 6.52589 2.25992 14.1589 4.16674C21.9083 6.18913 17.9462 15.1454 30.2988 15.1454Z" fill="#42ADE2"/>
<path d="M20.743 24.1017C11.6534 24.1017 12.5857 17.1678 4.48657 17.6301C7.45818 26.7597 20.743 24.1017 20.743 24.1017Z" fill="white"/>
<path d="M21.617 11.1006C15.7903 5.43795 9.8471 14.6831 17.0139 18.3812C24.0642 21.9637 28.9004 15.6077 28.9004 15.6077C28.9004 15.6077 25.3461 14.7409 21.617 11.1006Z" fill="#297B9D"/>
<path d="M7.63294 10.0605C8.43744 10.0605 9.08961 9.4138 9.08961 8.61599C9.08961 7.81818 8.43744 7.17142 7.63294 7.17142C6.82844 7.17142 6.17627 7.81818 6.17627 8.61599C6.17627 9.4138 6.82844 10.0605 7.63294 10.0605Z" fill="#3E4347"/>
</svg>
