<svg width="28" height="26" viewBox="0 0 28 26" fill="none" xmlns="http://www.w3.org/2000/svg">
<path d="M2.59467 8.84322C2.58431 8.84322 2.57395 8.84322 2.56359 8.84111C2.54805 8.839 2.15952 8.80311 1.49903 8.70598C0.778958 8.59829 0.304955 8.55395 0.299775 8.55395C0.144364 8.53917 0.0303965 8.42515 0.0485277 8.29635C0.0666589 8.16966 0.209119 8.07675 0.364529 8.09153C0.385251 8.09365 0.861843 8.13799 1.60263 8.24778C2.24241 8.3428 2.62575 8.3787 2.62834 8.3787C2.78375 8.39348 2.89772 8.5075 2.87959 8.6363C2.86146 8.75454 2.73713 8.84322 2.59467 8.84322Z" fill="#888071"/>
<path d="M0.28423 9.7744C0.141771 9.7744 0.0174422 9.68783 0.00190109 9.56958C-0.00242465 9.53921 0.000648961 9.50844 0.0109452 9.47904C0.0212414 9.44964 0.0385578 9.42218 0.0619009 9.39825C0.085244 9.37432 0.114154 9.35437 0.146973 9.33957C0.179792 9.32477 0.215874 9.31539 0.253148 9.31198C0.260919 9.31198 0.980988 9.2423 1.3462 9.19374C1.72437 9.14517 2.57395 9.03538 2.57395 9.03538L2.66201 9.49357L1.43686 9.65193C1.05869 9.70261 0.348985 9.77017 0.317903 9.77229C0.304952 9.77229 0.294591 9.7744 0.28423 9.7744Z" fill="#888071"/>
<path d="M0.732312 10.7457C0.607983 10.7457 0.494015 10.6802 0.457753 10.5768C0.41372 10.4543 0.501786 10.3255 0.654606 10.2896L2.69567 9.81452C2.76778 9.7995 2.84424 9.80805 2.90874 9.83832C2.97324 9.8686 3.02068 9.91822 3.04095 9.9766C3.06122 10.035 3.05272 10.0975 3.01725 10.1509C2.98178 10.2042 2.92215 10.2441 2.85108 10.2622L0.810017 10.7372C0.786706 10.7415 0.758214 10.7457 0.732312 10.7457Z" fill="#888071"/>
<path d="M11.2951 17.0231L8.48733 18.7778C8.48733 18.7778 8.59612 22.4349 8.52359 22.5827C8.45107 22.7305 7.4668 23.6532 7.57559 24.1874C7.66106 24.6034 8.04959 24.7512 9.10638 24.7828C10.1632 24.8145 12.3156 24.426 12.3156 24.426L11.2951 17.0231Z" fill="#B85C3E"/>
<path d="M19.537 18.4188L17.4597 19.369C17.4597 19.369 17.7524 20.0827 17.7524 21.0941C17.7524 22.1055 17.6436 22.7389 17.5711 22.948C17.4985 23.157 16.8899 23.5518 16.952 24.1262C16.9805 24.3922 17.3898 24.6013 18.1176 24.5717C18.8454 24.5421 19.9048 24.483 19.9048 24.483L20.9616 18.8643L19.537 18.4188Z" fill="#B85C3E"/>
<path d="M6.10695 5.07212C6.10695 5.07212 5.76763 4.10083 6.05773 2.55522C6.35042 1.00961 6.83479 0.196692 7.29843 0.156574C7.75948 0.116456 8.63496 0.830138 9.31618 1.68318C9.99739 2.53622 10.5569 4.04171 10.5569 4.04171L6.10695 5.07212Z" fill="#FB8B02"/>
<path d="M14.0303 19.7364C14.0303 19.7364 14.0536 21.5206 14.1028 22.3124C14.152 23.1042 14.1054 24.8631 13.9086 25.0573C13.6055 25.3551 13.2999 25.3635 12.6445 25.3846C12.2534 25.3973 12.7663 23.4231 12.7663 23.3428C12.7663 23.2626 12.7896 18.5265 12.7896 18.5265L14.0303 19.7364Z" fill="#FB8B02"/>
<path d="M7.53934 13.5751C7.53934 13.5751 6.95655 15.0806 7.1016 16.2102C7.24665 17.3399 8.04961 18.7672 8.85256 19.3415C9.65552 19.9159 10.3834 20.2136 10.4559 20.3529C10.5284 20.4923 10.8211 22.4539 10.7227 22.8698C10.6242 23.2858 9.91971 24.3563 10.0415 24.7723C10.1632 25.1882 10.645 25.4501 11.8882 25.4268C13.5045 25.3973 13.419 25.1988 13.5408 24.3774C13.6237 23.8242 13.5175 19.9982 13.5175 19.9982C13.5175 19.9982 14.5147 20.0785 15.9237 19.9982C17.3328 19.918 19.0838 19.4028 19.0838 19.4028C19.0838 19.4028 20.081 21.9387 19.7391 22.7115C19.3998 23.4843 18.8403 23.9214 18.9361 24.4556C19.0345 24.9898 19.8841 25.2284 20.9306 25.1481C21.977 25.0679 22.7774 24.5147 22.8266 23.7799C22.8758 23.0472 22.8499 18.9847 22.9975 18.668C23.1426 18.3513 23.6787 17.2617 23.6295 16.1701C23.5803 15.0784 23.4845 14.6435 23.4845 14.6435C23.4845 14.6435 24.7407 14.2529 25.9037 13.535C26.7895 12.9881 27.4552 12.2681 27.8101 11.1954C28.3929 9.43233 27.5925 7.68824 25.9866 7.0928C24.4428 6.52059 22.9224 6.73596 22.8758 7.64813C22.8292 8.56029 23.8238 8.36181 24.5775 8.59829C25.3313 8.83689 26.1808 9.92642 25.2821 10.9969C24.3833 12.0675 22.8033 12.4032 22.3163 12.4433C21.8293 12.4834 20.9306 11.869 19.0579 11.8289C17.1852 11.7888 14.4888 12.8994 14.4137 12.76C14.3411 12.6207 17.0867 11.1743 17.281 9.29297C17.4623 7.54889 17.0142 6.73596 17.0142 6.73596C17.0142 6.73596 16.6749 3.7841 16.1879 2.39686C15.701 1.00961 15.0275 -0.0207962 14.5898 0.000318702C14.1521 0.0193221 12.743 1.26932 12.2327 1.88377C11.7225 2.49821 11.163 3.4885 11.163 3.4885C11.163 3.4885 8.98725 3.42304 8.02629 3.70598C7.15081 3.96358 6.1536 4.39855 5.52159 5.21147C4.88959 6.02439 4.69533 6.49948 4.40264 6.61772C4.10995 6.73596 2.7242 6.97456 2.60246 7.11392C2.48072 7.25328 2.16472 9.09661 2.23725 9.37321C2.30977 9.64982 2.36676 10.2959 2.77082 10.6612C3.23188 11.0772 4.50883 11.7803 5.519 12.3061C6.4955 12.8128 7.4435 13.2182 7.53934 13.5751Z" fill="#FFB800"/>
<path d="M16.4987 15.5155C17.3975 15.505 17.3742 14.6245 17.3871 13.5328C17.3975 12.5785 17.3509 12.0168 17.3509 12.0168C17.3509 12.0168 16.8354 12.0738 16.3796 12.2153C15.9289 12.3546 15.5403 12.4834 15.5403 12.4834V14.0185C15.5378 14.5443 15.6103 15.5261 16.4987 15.5155Z" fill="#FF9B31"/>
<path d="M18.0787 11.8795C18.0787 11.8795 18.0787 12.8002 18.0917 13.5835C18.1046 14.426 18.0062 15.3382 19.0397 15.3276C19.9281 15.3192 19.9281 14.3964 19.9385 13.3555C19.9437 12.8107 19.9618 11.8795 19.9618 11.8795C19.9618 11.8795 19.5241 11.8099 19.0008 11.8204C18.589 11.8289 18.0787 11.8795 18.0787 11.8795Z" fill="#FF9B31"/>
<path d="M9.09859 7.86139C8.9095 8.23513 8.50284 8.76933 7.83199 8.62997C7.40202 8.54129 7.37094 7.78749 7.62218 7.33986C7.92005 6.81198 8.31635 6.57339 8.77999 6.61773C9.29026 6.6684 9.33947 7.38209 9.09859 7.86139Z" fill="#2C312C"/>
<path d="M4.65902 7.74737C4.64607 7.50877 3.89233 7.34196 3.30954 7.16249C2.81481 7.01257 2.54284 7.00413 2.41075 7.10337C2.27865 7.20261 2.11806 7.46021 2.04553 7.85717C1.97301 8.25413 1.99891 8.92558 2.11806 9.34365C2.23979 9.77018 2.43406 10.3044 3.29659 10.5831C4.03738 10.8217 4.47512 10.4944 4.79112 10.3149C5.1926 10.089 5.01905 9.55269 4.45181 9.8293C4.02702 10.0383 3.73433 10.0975 3.40537 9.89898C2.95468 9.62659 2.8459 8.82001 2.88216 8.75033C3.04016 8.44838 3.67216 8.37448 3.92859 8.29425C4.18502 8.21401 4.67197 7.95641 4.65902 7.74737Z" fill="#2C312C"/>
<path d="M9.75391 9.85252H9.73319C9.72542 9.85252 8.90693 9.80396 8.39666 9.7934L6.93839 9.76384C6.93839 9.76384 6.63275 9.78495 6.63275 9.54002C6.63275 9.28031 6.95134 9.32043 6.95134 9.32043L8.40961 9.34999C8.93283 9.36054 9.73837 9.407 9.77205 9.40911C9.92228 9.41755 10.0337 9.52524 10.0233 9.6456C10.0129 9.76384 9.89378 9.85252 9.75391 9.85252Z" fill="#888071"/>
<path d="M9.29029 11.2989C9.25144 11.2989 9.21 11.2925 9.17374 11.2778C9.16856 11.2757 8.5236 11.0244 7.94081 10.8618C7.33471 10.695 6.65608 10.5155 6.65608 10.5155C6.51362 10.4775 6.43333 10.3529 6.47995 10.2368C6.52658 10.1207 6.6794 10.0552 6.82186 10.0932C6.82186 10.0932 7.50566 10.2727 8.11435 10.4416C8.73082 10.6126 9.38095 10.866 9.40944 10.8787C9.54413 10.9315 9.60112 11.0645 9.53636 11.1743C9.48974 11.2524 9.39131 11.2989 9.29029 11.2989Z" fill="#888071"/>
<path d="M7.96669 12.1224C7.91489 12.1224 7.86049 12.1097 7.81387 12.0844C7.80869 12.0823 7.35282 11.8289 7.04718 11.6747C6.72858 11.5164 6.15616 11.2165 6.15616 11.2165C6.15616 11.2165 5.89973 11.0941 6.0655 10.8998C6.23127 10.7056 6.44885 10.8407 6.44885 10.8407C6.44885 10.8407 7.01869 11.1363 7.3321 11.2947C7.65069 11.453 8.10138 11.7064 8.1221 11.717C8.24643 11.7866 8.27751 11.9239 8.19204 12.0252C8.13764 12.0886 8.05217 12.1224 7.96669 12.1224Z" fill="#888071"/>
<path d="M14.1598 1.80353C14.0355 1.76764 13.2299 2.53199 12.8284 3.29002C12.427 4.04804 12.2819 4.46401 12.3182 4.59703C12.3337 4.65615 12.7974 4.98343 13.4838 5.42896C14.1961 5.88926 14.6493 6.1722 14.8514 6.15742C15.0508 6.14264 15.1078 4.87997 14.942 3.73554C14.7762 2.59112 14.3592 1.86265 14.1598 1.80353Z" fill="#FED0AB"/>
</svg>
