<svg width="200" height="200" viewBox="0 0 200 200" fill="none" xmlns="http://www.w3.org/2000/svg">
<path fill-rule="evenodd" clip-rule="evenodd" d="M67.2836 63.3554C67.2836 82.8816 81.3539 98.7107 98.7104 98.7107V28C81.3539 28.0001 67.2836 43.8292 67.2836 63.3554Z" fill="#CAFBF5"/>
<path fill-rule="evenodd" clip-rule="evenodd" d="M130.137 134.066C130.137 114.54 116.067 98.7107 98.7106 98.7107V169.421C116.067 169.421 130.137 153.592 130.137 134.066Z" fill="#E7EDFD"/>
<path fill-rule="evenodd" clip-rule="evenodd" d="M28 98.7107L98.7107 98.7107C98.7107 116.067 82.8816 130.138 63.3553 130.138C43.8291 130.138 28 116.067 28 98.7107Z" fill="#FBE1D9"/>
<path fill-rule="evenodd" clip-rule="evenodd" d="M169.421 98.7107L98.7105 98.7107C98.7105 81.354 114.54 67.2837 134.066 67.2837C153.592 67.2837 169.421 81.354 169.421 98.7107Z" fill="#FBD5E5"/>
<mask id="path-5-inside-1" fill="white">
<path fill-rule="evenodd" clip-rule="evenodd" d="M150.032 50.0319L150 50.0001L100 100C87.727 87.7271 88.9707 66.585 102.778 52.7778C116.585 38.9707 137.727 37.7271 150 50.0001C150.011 50.0107 150.021 50.0213 150.032 50.0319Z"/>
</mask>
<path d="M150 50.0001L151.061 48.9394L150 47.8787L148.939 48.9394L150 50.0001ZM150.032 50.0319L148.971 51.0926L151.094 48.9729L150.032 50.0319ZM100 100L98.9393 101.061L100 102.121L101.061 101.061L100 100ZM148.939 51.0607L148.971 51.0926L151.092 48.9712L151.061 48.9394L148.939 51.0607ZM101.061 101.061L151.061 51.0607L148.939 48.9394L98.9393 98.9394L101.061 101.061ZM101.061 98.9394C89.4874 87.3662 90.4962 67.1807 103.838 53.8385L101.717 51.7172C87.4451 65.9892 85.9666 88.088 98.9393 101.061L101.061 98.9394ZM103.838 53.8385C117.181 40.4963 137.366 39.4875 148.939 51.0607L151.061 48.9394C138.088 35.9666 115.989 37.4452 101.717 51.7172L103.838 53.8385ZM148.939 51.0607C148.949 51.0708 148.959 51.0808 148.969 51.0909L151.094 48.9729C151.083 48.9617 151.072 48.9506 151.061 48.9394L148.939 51.0607Z" fill="black" fill-opacity="0.08" mask="url(#path-5-inside-1)"/>
<mask id="path-7-inside-2" fill="white">
<path fill-rule="evenodd" clip-rule="evenodd" d="M49.9654 149.965L50.0002 150L100 100C112.273 112.273 111.029 133.415 97.2224 147.222C83.4152 161.029 62.2731 162.273 50.0001 150C49.9885 149.988 49.9769 149.977 49.9654 149.965Z"/>
</mask>
<path d="M50.0002 150L48.9395 151.061L50.0002 152.121L51.0608 151.061L50.0002 150ZM49.9654 149.965L51.026 148.905L48.9029 151.024L49.9654 149.965ZM100 100L101.061 98.9394L100 97.8787L98.9395 98.9394L100 100ZM51.0608 148.939L51.026 148.905L48.9047 151.026L48.9395 151.061L51.0608 148.939ZM98.9395 98.9394L48.9395 148.939L51.0608 151.061L101.061 101.061L98.9395 98.9394ZM98.9395 101.061C110.513 112.634 109.504 132.819 96.1617 146.162L98.283 148.283C112.555 134.011 114.034 111.912 101.061 98.9394L98.9395 101.061ZM96.1617 146.162C82.8195 159.504 62.634 160.513 51.0608 148.939L48.9395 151.061C61.9122 164.033 84.011 162.555 98.283 148.283L96.1617 146.162ZM51.0608 148.939C51.0498 148.928 51.0388 148.917 51.0279 148.906L48.9029 151.024C48.9151 151.036 48.9273 151.049 48.9395 151.061L51.0608 148.939Z" fill="black" fill-opacity="0.08" mask="url(#path-7-inside-2)"/>
<mask id="path-9-inside-3" fill="white">
<path fill-rule="evenodd" clip-rule="evenodd" d="M50 50.0001C37.727 62.2731 38.9707 83.4152 52.7778 97.2223C66.5849 111.029 87.727 112.273 100 100C100.011 99.9891 100.022 99.9781 100.033 99.9671L99.9999 100L50 50.0001Z"/>
</mask>
<path d="M50 50.0001L51.0606 48.9394L50 47.8788L48.9393 48.9394L50 50.0001ZM100.033 99.9671L101.095 101.026L98.9723 98.9064L100.033 99.9671ZM99.9999 100L98.9393 101.061L99.9999 102.121L101.061 101.061L99.9999 100ZM53.8384 96.1616C40.4962 82.8194 39.4874 62.634 51.0606 51.0607L48.9393 48.9394C35.9666 61.9122 37.4451 84.011 51.7171 98.283L53.8384 96.1616ZM98.9393 98.9394C87.3661 110.513 67.1807 109.504 53.8384 96.1616L51.7171 98.283C65.9891 112.555 88.0879 114.034 101.061 101.061L98.9393 98.9394ZM98.9707 98.908C98.9601 98.9186 98.9497 98.9291 98.9393 98.9394L101.061 101.061C101.072 101.049 101.084 101.038 101.095 101.026L98.9707 98.908ZM98.9723 98.9064L98.9393 98.9394L101.061 101.061L101.094 101.028L98.9723 98.9064ZM101.061 98.9394L51.0606 48.9394L48.9393 51.0607L98.9393 101.061L101.061 98.9394Z" fill="black" fill-opacity="0.08" mask="url(#path-9-inside-3)"/>
<mask id="path-11-inside-4" fill="white">
<path fill-rule="evenodd" clip-rule="evenodd" d="M150 150C162.273 137.727 161.029 116.585 147.222 102.778C133.415 88.9707 112.273 87.727 99.9999 100C99.99 100.01 99.9802 100.02 99.9704 100.03L99.9999 100L150 150Z"/>
</mask>
<path d="M150 150L148.939 151.061L150 152.121L151.061 151.061L150 150ZM99.9704 100.03L98.908 98.9707L101.031 101.09L99.9704 100.03ZM99.9999 100L101.061 98.9394L99.9999 97.8787L98.9393 98.9394L99.9999 100ZM146.161 103.838C159.504 117.181 160.512 137.366 148.939 148.939L151.061 151.061C164.033 138.088 162.555 115.989 148.283 101.717L146.161 103.838ZM101.061 101.061C112.634 89.4875 132.819 90.4962 146.161 103.838L148.283 101.717C134.011 87.4451 111.912 85.9666 98.9392 98.9394L101.061 101.061ZM101.033 101.088C101.042 101.079 101.051 101.07 101.061 101.061L98.9392 98.9394C98.929 98.9496 98.9186 98.96 98.908 98.9707L101.033 101.088ZM101.031 101.09L101.061 101.061L98.9393 98.9394L98.9097 98.9689L101.031 101.09ZM98.9393 101.061L148.939 151.061L151.061 148.939L101.061 98.9394L98.9393 101.061Z" fill="black" fill-opacity="0.08" mask="url(#path-11-inside-4)"/>
</svg>
