<svg width="113" height="50" viewBox="0 0 113 50" fill="none" xmlns="http://www.w3.org/2000/svg">
<path d="M56.9176 34H59.5511V27.8636H63.1307C67.179 27.8636 69.1818 25.4176 69.1818 22.196C69.1818 18.983 67.196 16.5455 63.1392 16.5455H56.9176V34ZM59.5511 25.6307V18.804H62.858C65.4659 18.804 66.5312 20.2188 66.5312 22.196C66.5312 24.1733 65.4659 25.6307 62.892 25.6307H59.5511ZM77.5426 34.2642C80.3977 34.2642 82.4176 32.858 82.9972 30.7273L80.5852 30.2926C80.125 31.5284 79.017 32.1591 77.5682 32.1591C75.3864 32.1591 73.9205 30.7443 73.8523 28.2216H83.1591V27.3182C83.1591 22.5881 80.3295 20.7386 77.3636 20.7386C73.7159 20.7386 71.3125 23.517 71.3125 27.5398C71.3125 31.6051 73.6818 34.2642 77.5426 34.2642ZM73.8608 26.3125C73.9631 24.4545 75.3097 22.8438 77.3807 22.8438C79.358 22.8438 80.6534 24.3097 80.6619 26.3125H73.8608ZM92.0973 20.9091H89.4126V17.7727H86.8643V20.9091H84.9467V22.9545H86.8643V30.6847C86.8558 33.0625 88.6712 34.2131 90.6825 34.1705C91.4922 34.1619 92.0376 34.0085 92.3359 33.8977L91.8757 31.7926C91.7053 31.8267 91.3899 31.9034 90.9808 31.9034C90.1541 31.9034 89.4126 31.6307 89.4126 30.1562V22.9545H92.0973V20.9091ZM97.7457 16.5455H95.1974V34H97.7457V16.5455ZM102.785 38.9091C104.89 38.9091 106.219 37.8097 106.978 35.7472L112.39 20.9347L109.637 20.9091L106.322 31.0682H106.185L102.87 20.9091H100.143L104.933 34.1705L104.617 35.0398C103.969 36.7784 103.058 36.9233 101.66 36.5398L101.046 38.6278C101.353 38.7642 102.018 38.9091 102.785 38.9091Z" fill="#344062"/>
<circle cx="25" cy="25" r="25" fill="#0D75FF"/>
<path d="M18.7107 35H30.3122C31.4961 35 32.4562 34.04 32.4562 32.855V23.3425C34.4689 23.2625 35.6728 21.03 34.5977 19.295L33.9701 18.2825C33.7326 17.8988 33.4009 17.5822 33.0067 17.3626C32.6124 17.1429 32.1686 17.0276 31.7173 17.0275H29.9234V16.2325C29.9234 16.0706 29.8915 15.9104 29.8295 15.7608C29.7676 15.6113 29.6768 15.4754 29.5623 15.361C29.4479 15.2465 29.312 15.1558 29.1624 15.0938C29.0129 15.0319 28.8526 15 28.6907 15C28.2893 15.0002 27.8919 15.0794 27.5211 15.2331C27.1503 15.3869 26.8134 15.6121 26.5297 15.896C26.246 16.18 26.021 16.517 25.8675 16.8878C25.7141 17.2587 25.6352 17.6561 25.6353 18.0575V22.3775C24.0376 22.535 22.8312 23.29 21.9449 24.355C20.9673 25.53 20.3909 27.0613 20.0484 28.5325C19.7034 30.01 19.5821 31.48 19.5446 32.5725C19.5296 33.04 19.5296 33.4425 19.5346 33.75H18.7107C18.2304 33.75 17.7606 33.6097 17.359 33.3463C16.9574 33.0829 16.6415 32.7079 16.4503 32.2674C16.259 31.8268 16.2007 31.34 16.2824 30.8668C16.3642 30.3936 16.5825 29.9546 16.9105 29.6037L18.0607 28.37C18.8533 27.5199 19.2851 26.3954 19.2651 25.2333C19.245 24.0712 18.7747 22.9622 17.9531 22.14L16.8242 21.0113C16.7666 20.9516 16.6976 20.9039 16.6214 20.8712C16.5451 20.8384 16.4631 20.8212 16.3801 20.8205C16.2971 20.8197 16.2148 20.8356 16.1379 20.867C16.0611 20.8984 15.9913 20.9448 15.9326 21.0035C15.874 21.0622 15.8275 21.132 15.7961 21.2088C15.7647 21.2856 15.7489 21.3679 15.7496 21.4509C15.7503 21.5339 15.7675 21.6159 15.8003 21.6921C15.8331 21.7684 15.8807 21.8373 15.9404 21.895L17.0693 23.0237C17.6624 23.6166 18.002 24.4166 18.0164 25.255C18.0309 26.0934 17.7191 26.9046 17.1468 27.5175L15.9966 28.7513C15.5037 29.2805 15.176 29.9421 15.0536 30.6549C14.9312 31.3677 15.0195 32.1007 15.3076 32.7641C15.5957 33.4275 16.0712 33.9924 16.6757 34.3895C17.2802 34.7867 17.9874 34.9988 18.7107 35ZM28.6745 16.25V17.6525C28.6745 17.8183 28.7403 17.9772 28.8575 18.0944C28.9748 18.2117 29.1338 18.2775 29.2995 18.2775H31.7173C32.2024 18.2775 32.6525 18.5275 32.9075 18.94L33.5363 19.9537C33.6679 20.1661 33.7404 20.4097 33.7463 20.6595C33.7522 20.9092 33.6912 21.156 33.5698 21.3743C33.4483 21.5927 33.2707 21.7746 33.0554 21.9013C32.84 22.028 32.5948 22.0948 32.3449 22.095H31.8324C31.6666 22.095 31.5076 22.1608 31.3904 22.2781C31.2731 22.3953 31.2073 22.5542 31.2073 22.72V32.855C31.2073 33.3488 30.8072 33.75 30.3122 33.75H29.4171V32.855C29.4174 31.8832 29.0317 30.951 28.3448 30.2635C27.6579 29.576 26.726 29.1894 25.7541 29.1887H24.4864C24.3207 29.1887 24.1617 29.2546 24.0445 29.3718C23.9272 29.489 23.8614 29.648 23.8614 29.8137C23.8614 29.9795 23.9272 30.1385 24.0445 30.2557C24.1617 30.3729 24.3207 30.4387 24.4864 30.4387H25.7529C27.0868 30.4387 28.1682 31.52 28.1682 32.855V33.75H20.7847C20.7785 33.4575 20.7785 33.07 20.7935 32.6138C20.8285 31.5688 20.9435 30.1888 21.2648 28.8163C21.5861 27.4363 22.1024 26.1175 22.905 25.1538C23.6888 24.215 24.7527 23.5975 26.2604 23.5975C26.4262 23.5975 26.5852 23.5317 26.7024 23.4144C26.8196 23.2972 26.8855 23.1383 26.8855 22.9725V18.0575C26.8855 17.065 27.6843 16.2587 28.6732 16.25H28.6745Z" fill="white"/>
</svg>
