<svg width="36" height="36" viewBox="0 0 36 36" fill="none" xmlns="http://www.w3.org/2000/svg">
<path d="M8.99997 11C8.99997 6.858 6.99997 0 7.99997 0C8.99997 0 15 4 13 11C11.862 14.983 12.104 15 11 15C9.89597 15 8.99997 15.142 8.99997 11Z" fill="#99AAB5"/>
<path d="M9.54998 11.704C9.54998 8.29 8.25298 2.639 8.90198 2.639C9.54998 2.639 13.44 5.935 12.143 11.704C11.405 14.986 11.562 15 10.846 15C10.13 15 9.54998 15.117 9.54998 11.704Z" fill="#F4ABBA"/>
<path d="M4.78898 12.375C3.72598 8.372 0.0329794 2.256 0.999979 2C1.96598 1.743 8.79198 4.07 8.65498 11.349C8.57698 15.491 8.81598 15.445 7.74798 15.728C6.67998 16.011 5.85098 16.378 4.78898 12.375Z" fill="#99AAB5"/>
<path d="M5.50002 12.914C4.62502 9.615 1.92102 4.485 2.54802 4.319C3.17502 4.152 7.78002 6.341 8.00602 12.249C8.13502 15.61 8.29102 15.584 7.59902 15.768C6.90702 15.951 6.37602 16.213 5.50002 12.914Z" fill="#F4ABBA"/>
<path d="M32.5 32C34.433 32 36 30.433 36 28.5C36 26.567 34.433 25 32.5 25C30.567 25 29 26.567 29 28.5C29 30.433 30.567 32 32.5 32Z" fill="#CCD6DD"/>
<path d="M30.733 31.736C32.227 30.354 33 28.218 33 25C33 17.82 26.18 14 19 14C16.943 14 15.171 14.157 13.677 14.54C12.592 13.41 10.817 13 8.4 13C4.136 13 0 17.069 0 21.333C0 25.463 3.88 25.97 7.999 25.997L8 26C11 31 9 36 11 36C12.588 36 12.914 33.783 12.981 31.625C14.0844 32.3021 15.2714 32.8322 16.512 33.202C15.635 33.726 15 34.271 15 34.5C15 35.881 17 36 20 36C25.522 36 33 36 31 32C30.9362 31.8897 30.844 31.7985 30.733 31.736Z" fill="#99AAB5"/>
<path d="M6 19C6.55228 19 7 18.5523 7 18C7 17.4477 6.55228 17 6 17C5.44772 17 5 17.4477 5 18C5 18.5523 5.44772 19 6 19Z" fill="#292F33"/>
<path d="M2 21C2 22.104 1.5 23 1 23C0.5 23 0 22.104 0 21C0 19.896 0.448 20 1 20C1.552 20 2 19.896 2 21Z" fill="#F4ABBA"/>
</svg>
