<svg width="30" height="21" viewBox="0 0 30 21" fill="none" xmlns="http://www.w3.org/2000/svg">
<path d="M20.7348 12.6477C20.7348 14.0487 19.0534 15.1847 16.9793 15.1847C14.9062 15.1847 13.2243 14.0487 13.2243 12.6477V3.5125C13.2243 2.11153 14.9058 0.975224 16.9793 0.975224C19.0529 0.975224 20.7348 2.11153 20.7348 3.5125V12.6477Z" fill="#199050"/>
<path d="M16.1003 9.10016C20.7905 9.10016 24.5926 7.38827 24.5926 5.27654C24.5926 3.16482 20.7905 1.45293 16.1003 1.45293C11.4102 1.45293 7.60803 3.16482 7.60803 5.27654C7.60803 7.38827 11.4102 9.10016 16.1003 9.10016Z" fill="#199050"/>
<path d="M23.5365 3.08058C23.5365 4.7248 21.9122 6.05465 19.91 6.05465C17.904 6.05465 16.2778 4.7248 16.2778 3.08058C16.2778 1.44059 17.904 0.109116 19.91 0.109116C21.9122 0.109116 23.5365 1.43929 23.5365 3.08058Z" fill="#D6DF27"/>
<path d="M16.3359 2.97147C16.3359 4.61536 14.7116 5.94554 12.7094 5.94554C10.7034 5.94554 9.07718 4.61536 9.07718 2.97147C9.07718 1.33148 10.7034 0 12.7094 0C14.7116 0 16.3359 1.33018 16.3359 2.97147Z" fill="#D6DF27"/>
<path d="M13.5004 3.08643C13.5004 4.17662 13.1454 5.05896 12.707 5.05896C12.2682 5.05896 11.9118 4.17662 11.9118 3.08643C11.9118 1.99786 12.2682 1.11259 12.707 1.11259C13.1454 1.11259 13.5004 1.99786 13.5004 3.08643Z" fill="#25333A"/>
<path d="M20.701 3.08643C20.701 4.17662 20.3465 5.05896 19.9077 5.05896C19.4689 5.05896 19.1124 4.17662 19.1124 3.08643C19.1124 1.99786 19.4689 1.11259 19.9077 1.11259C20.3465 1.11259 20.701 1.99786 20.701 3.08643Z" fill="#25333A"/>
<path d="M24.8025 8.42273L27.2097 6.56061C27.2658 6.51482 27.1354 6.37225 26.9151 6.24235C26.6928 6.11148 26.4668 6.04263 26.4082 6.08777L23.7973 8.10934L18.0292 8.37466C17.9093 8.38051 17.8293 8.54451 17.8493 8.74228C17.8679 8.9407 17.9807 9.09691 18.1006 9.09139L23.8687 8.82574L26.8604 10.5908C26.9289 10.6288 27.1373 10.5414 27.3315 10.3917C27.5228 10.2413 27.6252 10.089 27.559 10.0491L24.802 8.42208" fill="#CB2E42"/>
<path d="M29.9995 18.4315C29.9995 20.7243 23.0749 20.6801 15.584 20.6801C8.08776 20.6801 0 20.723 0 18.4315C0 16.1388 6.07796 14.2803 13.5675 14.2803C21.0561 14.2803 30 16.1388 30 18.4315" fill="#199050"/>
<path d="M26.4492 16.207C26.4492 17.8558 20.3783 17.8249 14.0562 17.8249C7.72891 17.8249 2.11069 17.8558 2.11069 16.207C2.11069 14.5563 7.24061 13.2206 13.5613 13.2206C19.8824 13.2206 26.4492 14.5563 26.4492 16.207Z" fill="#15A75C"/>
<path d="M24.6559 14.2975C24.6559 15.45 19.3123 15.0483 13.9806 15.0483C8.64507 15.0483 3.91016 15.0691 3.91016 13.9175C3.91016 12.763 11.1013 11.0691 16.433 11.0691C21.7628 11.0691 24.6578 13.143 24.6578 14.2975" fill="#04A69C"/>
<path d="M13.1901 9.41646C12.9426 8.63544 14.487 8.42922 16.5872 8.12623C18.686 7.82324 20.5478 7.53843 20.7948 8.31946C21.0423 9.10048 19.5365 9.97828 17.4396 10.2809C15.3408 10.5836 13.4385 10.1972 13.192 9.41646" fill="#04A69C"/>
</svg>
